<svg id="svg" version="1.1" xmlns="http://www.w3.org/2000/svg" xmlns:xlink="http://www.w3.org/1999/xlink" width="400" height="492.3333333333333" viewBox="0, 0, 400,492.3333333333333"><g id="svgg"><path id="path0" d="M201.090 80.331 C 197.427 81.106,193.828 83.856,192.258 87.078 C 190.023 91.665,105.301 296.102,105.462 296.521 C 105.743 297.253,132.717 297.236,133.449 296.503 C 133.723 296.230,141.463 277.142,150.651 254.086 C 161.543 226.755,167.601 211.961,168.058 211.576 C 169.005 210.778,164.068 206.921,221.500 253.324 C 273.906 295.666,274.649 296.254,277.184 297.376 C 287.006 301.720,298.231 292.750,295.898 282.420 C 295.144 279.080,215.707 87.795,214.065 85.364 C 211.344 81.337,206.046 79.282,201.090 80.331 M229.910 185.221 C 243.702 219.291,255.027 247.541,255.076 247.999 C 255.306 250.114,254.027 249.172,216.333 219.477 C 174.952 186.877,177.333 188.806,177.333 187.897 C 177.333 186.985,202.611 123.770,203.218 123.163 C 204.307 122.074,204.984 123.646,229.910 185.221 " stroke="none" fill="#fbfbfb" fill-rule="evenodd"></path><path id="path1" d="M170.833 0.851 C 79.844 14.405,9.851 87.618,0.482 179.040 C -0.342 187.080,-0.045 218.093,0.924 225.167 C 13.207 314.868,79.723 383.933,167.667 398.300 C 278.695 416.439,382.284 341.256,399.328 230.167 C 400.345 223.539,400.346 176.140,399.330 169.500 C 385.871 81.585,316.549 12.912,228.919 0.686 C 220.928 -0.429,178.619 -0.309,170.833 0.851 M208.315 79.635 C 210.907 80.442,213.566 82.443,215.084 84.730 C 216.283 86.537,294.984 275.434,296.579 280.333 C 299.858 290.409,292.217 300.190,281.530 299.594 C 276.091 299.291,281.072 303.008,220.730 254.226 C 163.306 207.803,169.119 212.393,168.546 213.017 C 168.301 213.283,160.634 232.250,151.507 255.167 C 142.380 278.083,134.684 297.096,134.405 297.417 C 133.935 297.955,132.794 298.000,119.476 298.000 C 104.019 298.000,104.000 297.999,104.000 296.805 C 104.000 296.043,189.456 90.043,191.199 86.603 C 194.340 80.404,201.465 77.503,208.315 79.635 M191.058 156.106 C 184.243 173.214,178.667 187.453,178.667 187.747 C 178.667 188.238,251.708 246.114,252.909 246.575 C 253.305 246.727,253.358 246.603,253.162 245.984 C 252.096 242.627,204.144 125.000,203.841 125.000 C 203.625 125.000,197.873 138.998,191.058 156.106 M152.159 440.341 C 142.099 441.307,137.332 445.809,137.729 453.967 C 138.069 460.935,140.548 463.280,155.280 470.561 C 166.956 476.332,168.493 477.918,165.402 481.010 C 162.256 484.156,154.916 484.361,143.989 481.610 C 138.383 480.199,138.253 480.240,137.176 483.771 C 135.794 488.304,136.051 488.838,140.242 490.135 C 150.139 493.199,163.227 493.263,169.117 490.278 C 174.261 487.671,176.655 483.874,176.663 478.311 C 176.673 471.250,174.527 469.136,160.075 461.976 C 147.794 455.891,145.696 453.940,148.462 451.175 C 150.377 449.260,159.550 448.838,167.761 450.288 C 173.417 451.287,174.039 451.216,174.612 449.500 C 175.463 446.951,175.532 443.130,174.735 442.703 C 171.716 441.087,158.633 439.718,152.159 440.341 M378.954 440.330 C 373.898 440.814,369.653 442.252,366.910 444.411 C 361.504 448.665,360.872 458.321,365.643 463.755 L 366.620 464.868 364.967 466.467 C 359.392 471.858,359.627 482.306,365.441 487.533 C 369.520 491.201,373.858 492.334,383.803 492.331 C 391.041 492.328,393.271 492.135,397.750 491.122 L 400.000 490.613 400.000 486.480 L 400.000 482.346 399.125 482.126 C 398.643 482.006,396.881 482.150,395.208 482.448 C 380.179 485.122,371.000 482.867,371.000 476.500 C 371.000 471.667,373.969 470.333,384.730 470.333 C 394.362 470.333,395.333 469.899,395.333 465.591 C 395.333 461.794,394.294 461.333,385.736 461.333 C 376.915 461.333,374.676 460.619,372.961 457.256 C 369.763 450.989,377.430 448.110,392.666 449.857 C 395.177 450.144,397.816 450.332,398.532 450.273 L 399.833 450.167 399.833 446.000 L 399.833 441.833 397.833 441.434 C 392.670 440.402,383.691 439.878,378.954 440.330 M19.775 440.820 C 18.252 441.482,18.541 440.853,8.866 464.523 L 0.000 486.213 0.000 489.107 L 0.000 492.000 3.592 492.000 C 8.430 492.000,8.054 492.399,11.511 483.588 C 13.113 479.506,14.592 475.741,14.797 475.222 L 15.171 474.276 25.735 482.940 C 36.699 491.932,37.695 492.574,40.082 492.192 C 42.877 491.745,44.268 489.741,43.891 486.704 C 43.700 485.168,26.987 443.881,25.860 442.160 C 24.772 440.499,21.944 439.876,19.775 440.820 M70.690 440.898 C 67.989 442.320,68.178 440.436,68.077 467.018 C 67.971 494.969,67.410 492.000,72.796 492.000 C 78.181 492.000,77.656 493.787,77.752 475.137 L 77.833 459.441 89.991 475.435 C 103.281 492.920,102.964 492.588,106.063 492.221 C 108.031 491.988,109.292 491.180,109.879 489.776 C 110.523 488.234,110.554 442.430,109.912 441.551 C 109.168 440.534,102.873 440.372,101.333 441.331 C 100.904 441.598,100.810 443.874,100.667 457.374 L 100.500 473.105 88.536 457.363 C 81.956 448.704,76.210 441.383,75.767 441.093 C 74.530 440.282,72.042 440.187,70.690 440.898 M204.500 440.883 C 202.590 441.185,202.667 440.119,202.667 466.545 L 202.667 490.962 203.408 491.481 C 204.418 492.189,210.899 492.224,211.853 491.527 C 212.785 490.845,212.877 442.401,211.948 441.472 C 211.379 440.903,206.708 440.534,204.500 440.883 M245.218 440.993 C 243.460 441.313,242.564 441.954,241.716 443.499 C 240.831 445.112,240.883 487.981,241.772 489.610 C 242.998 491.857,243.775 491.985,256.167 491.987 C 268.264 491.989,270.126 491.784,273.845 490.043 C 283.938 485.321,285.208 470.925,276.056 464.997 L 275.279 464.493 276.287 463.225 C 281.491 456.676,279.546 446.680,272.354 443.010 C 268.629 441.110,251.551 439.841,245.218 440.993 M307.899 440.907 C 306.351 441.140,306.333 441.411,306.334 465.438 C 306.334 490.543,306.252 489.537,308.441 491.143 C 309.355 491.814,309.807 491.836,324.734 491.926 C 343.328 492.039,341.667 492.486,341.667 487.377 C 341.667 482.224,342.913 482.667,328.390 482.667 L 316.333 482.667 316.329 462.750 C 316.326 451.796,316.234 442.498,316.125 442.089 C 315.798 440.871,311.879 440.308,307.899 440.907 M265.833 450.575 C 270.413 452.956,270.263 458.361,265.554 460.641 C 264.254 461.270,263.524 461.333,257.561 461.333 L 251.000 461.333 251.000 455.458 L 251.000 449.583 257.750 449.732 C 263.761 449.866,264.646 449.958,265.833 450.575 M25.654 465.523 C 27.303 469.704,28.612 473.166,28.562 473.216 C 28.495 473.282,19.364 466.123,18.736 465.511 C 18.683 465.459,19.261 463.860,20.021 461.958 C 20.782 460.056,21.549 458.125,21.725 457.667 C 22.148 456.572,22.033 456.343,25.654 465.523 M267.167 470.701 C 272.269 472.095,273.738 477.860,269.859 481.266 C 268.100 482.811,266.892 482.996,258.583 482.998 L 251.000 483.000 251.000 476.667 L 251.000 470.333 258.417 470.335 C 262.738 470.336,266.390 470.489,267.167 470.701 " stroke="none" fill="#1c1c1c" fill-rule="evenodd"></path><path id="path2" d="M202.923 79.575 C 203.522 79.649,204.422 79.648,204.923 79.572 C 205.424 79.495,204.933 79.435,203.833 79.437 C 202.733 79.438,202.324 79.501,202.923 79.575 M194.000 83.500 C 193.190 84.325,192.603 85.000,192.695 85.000 C 192.786 85.000,193.524 84.325,194.333 83.500 C 195.143 82.675,195.730 82.000,195.639 82.000 C 195.547 82.000,194.810 82.675,194.000 83.500 M168.067 212.067 C 167.847 212.287,167.667 212.615,167.667 212.797 C 167.667 212.979,167.870 212.849,168.118 212.510 C 168.403 212.121,168.780 211.972,169.136 212.109 C 169.470 212.237,169.618 212.191,169.498 211.996 C 169.221 211.548,168.552 211.581,168.067 212.067 M296.767 285.000 C 296.767 286.008,296.829 286.421,296.905 285.917 C 296.982 285.412,296.982 284.587,296.905 284.083 C 296.829 283.579,296.767 283.992,296.767 285.000 M112.250 297.583 C 116.146 297.636,122.521 297.636,126.417 297.583 C 130.313 297.530,127.125 297.486,119.333 297.486 C 111.542 297.486,108.354 297.530,112.250 297.583 " stroke="none" fill="#8c8b8a" fill-rule="evenodd"></path><path id="path3" d="M199.762 80.132 C 196.745 81.114,193.197 84.006,191.911 86.531 C 190.243 89.806,104.645 296.462,104.795 296.853 C 104.951 297.261,107.135 297.333,119.315 297.333 L 133.651 297.333 134.119 296.583 C 134.376 296.171,142.048 277.083,151.167 254.167 C 167.652 212.742,168.211 211.418,169.057 211.748 C 169.301 211.843,192.900 230.842,221.500 253.969 C 278.449 300.018,276.536 298.579,281.250 298.917 C 290.908 299.608,298.464 291.110,296.335 281.951 C 295.802 279.659,216.295 88.090,214.890 85.712 C 212.022 80.860,205.226 78.353,199.762 80.132 M208.344 80.839 C 210.502 81.586,212.670 83.301,214.065 85.364 C 215.707 87.795,295.144 279.080,295.898 282.420 C 298.231 292.750,287.006 301.720,277.184 297.376 C 274.649 296.254,273.906 295.666,221.500 253.324 C 164.068 206.921,169.005 210.778,168.058 211.576 C 167.601 211.961,161.543 226.755,150.651 254.086 C 141.463 277.142,133.723 296.230,133.449 296.503 C 132.717 297.236,105.743 297.253,105.462 296.521 C 105.301 296.102,190.023 91.665,192.258 87.078 C 194.991 81.468,202.143 78.695,208.344 80.839 M203.218 123.163 C 202.611 123.770,177.333 186.985,177.333 187.897 C 177.333 188.806,174.952 186.877,216.333 219.477 C 254.027 249.172,255.306 250.114,255.076 247.999 C 254.910 246.464,204.860 123.289,204.273 122.971 C 203.889 122.764,203.557 122.824,203.218 123.163 M204.616 124.250 C 205.926 126.746,254.360 247.126,254.275 247.677 C 254.123 248.674,256.361 250.378,214.871 217.686 C 182.824 192.435,178.000 188.520,178.000 187.766 C 178.000 187.131,198.352 135.505,202.777 124.917 C 203.335 123.581,204.116 123.298,204.616 124.250 " stroke="none" fill="#949494" fill-rule="evenodd"></path><path id="path4" d="M199.075 79.657 C 195.657 80.887,192.834 83.377,191.199 86.603 C 189.456 90.043,104.000 296.043,104.000 296.805 C 104.000 297.999,104.019 298.000,119.476 298.000 C 132.794 298.000,133.935 297.955,134.405 297.417 C 134.684 297.096,142.380 278.083,151.507 255.167 C 160.634 232.250,168.301 213.283,168.546 213.017 C 169.119 212.393,163.306 207.803,220.730 254.226 C 281.072 303.008,276.091 299.291,281.530 299.594 C 292.217 300.190,299.858 290.409,296.579 280.333 C 294.984 275.434,216.283 86.537,215.084 84.730 C 211.872 79.892,204.720 77.625,199.075 79.657 M207.180 79.851 C 211.072 80.864,213.969 83.311,215.841 87.167 C 217.184 89.931,295.285 277.996,296.200 280.667 C 300.136 292.160,287.553 303.048,276.421 297.781 C 274.056 296.663,275.875 298.108,219.712 252.721 C 164.897 208.422,169.211 211.848,168.556 212.099 C 168.271 212.208,160.944 230.130,151.157 254.654 C 139.866 282.950,134.050 297.128,133.647 297.344 C 132.886 297.751,105.681 297.771,105.040 297.365 C 104.754 297.184,104.639 296.713,104.735 296.120 C 104.931 294.914,191.099 87.644,192.165 85.814 C 195.015 80.922,201.462 78.362,207.180 79.851 M202.906 125.062 C 193.390 148.202,177.917 187.796,178.206 188.266 C 178.770 189.182,253.112 247.659,253.719 247.663 C 254.527 247.668,255.884 251.121,229.171 185.174 C 203.488 121.769,203.886 122.679,202.906 125.062 M228.572 185.100 C 255.289 251.067,253.618 246.847,252.909 246.575 C 251.708 246.114,178.667 188.238,178.667 187.747 C 178.667 186.760,203.444 125.000,203.841 125.000 C 204.056 125.000,215.185 152.045,228.572 185.100 " stroke="none" fill="#6a6a6a" fill-rule="evenodd"></path></g></svg>