<svg id="svg" version="1.1" xmlns="http://www.w3.org/2000/svg" xmlns:xlink="http://www.w3.org/1999/xlink" width="400" height="400" viewBox="0, 0, 400,400"><g id="svgg"><path id="path0" d="M134.316 42.292 C 123.284 44.063,116.485 56.730,120.833 67.413 C 121.363 68.714,121.732 69.779,121.655 69.779 C 121.577 69.779,120.958 69.495,120.279 69.149 C 112.991 65.431,103.362 67.722,98.094 74.427 C 92.904 81.034,92.833 87.049,97.829 97.040 C 106.884 115.148,109.838 127.658,109.840 147.912 C 109.842 168.084,107.451 178.107,97.750 198.584 C 92.793 209.049,92.849 214.307,97.989 220.810 C 103.449 227.717,111.459 229.771,119.832 226.412 C 120.785 226.029,121.624 225.717,121.698 225.717 C 121.771 225.717,121.465 226.516,121.018 227.493 C 114.650 241.402,127.871 256.960,142.246 252.473 C 143.740 252.007,146.880 250.681,149.222 249.527 C 168.498 240.032,178.764 237.655,200.328 237.698 C 220.772 237.739,231.006 240.174,250.287 249.584 C 252.539 250.683,255.266 251.894,256.347 252.274 C 270.914 257.399,284.824 241.683,278.311 227.459 C 277.603 225.911,277.565 225.683,278.053 225.888 C 284.647 228.653,289.848 228.729,294.990 226.136 C 295.899 225.678,296.716 225.211,296.806 225.098 C 296.896 224.986,297.642 224.387,298.463 223.768 C 306.004 218.087,307.103 209.592,301.694 198.802 C 293.310 182.076,289.967 169.331,289.423 152.007 C 288.757 130.844,291.980 116.151,301.439 97.217 C 305.708 88.673,306.277 83.895,303.686 78.359 C 299.274 68.930,288.726 64.911,279.318 69.073 C 278.440 69.461,277.683 69.779,277.635 69.779 C 277.588 69.779,277.966 68.754,278.476 67.501 C 282.446 57.746,277.984 47.362,268.043 43.224 C 262.970 41.111,259.168 41.661,250.450 45.769 C 229.725 55.535,220.251 57.788,199.836 57.803 C 179.321 57.817,167.739 55.067,148.698 45.659 C 142.449 42.572,138.433 41.631,134.316 42.292 M148.075 93.670 C 153.931 98.587,161.229 104.716,164.292 107.290 C 190.187 129.055,189.227 128.306,193.346 129.970 C 200.317 132.785,206.628 131.171,214.467 124.566 C 218.311 121.328,219.335 120.468,225.923 114.943 C 229.009 112.355,233.211 108.826,235.259 107.100 C 237.308 105.374,244.586 99.270,251.433 93.535 C 258.280 87.800,264.246 82.799,264.691 82.422 C 265.929 81.373,265.635 81.736,253.567 96.151 C 247.533 103.358,239.498 112.955,235.712 117.477 C 231.926 121.999,227.355 127.435,225.553 129.555 C 215.386 141.522,213.860 146.950,218.181 155.774 C 219.711 158.898,219.943 159.194,233.773 175.642 C 239.735 182.732,247.025 191.409,249.974 194.922 C 252.922 198.436,257.592 204.001,260.352 207.289 C 263.113 210.577,265.288 213.268,265.186 213.268 C 265.031 213.268,245.097 196.593,220.356 175.769 C 211.988 168.727,210.436 167.547,207.862 166.273 C 200.007 162.383,193.233 163.751,184.694 170.953 C 180.991 174.076,167.151 185.701,156.560 194.582 C 152.164 198.269,145.370 203.982,141.463 207.277 C 137.557 210.572,134.270 213.268,134.160 213.268 C 133.981 213.268,140.605 205.296,155.937 187.060 C 158.740 183.726,163.385 178.198,166.260 174.775 C 169.134 171.351,173.076 166.661,175.018 164.351 C 187.027 150.075,186.576 144.851,171.819 127.273 C 140.508 89.975,133.989 82.171,133.989 81.986 C 133.989 81.895,134.762 82.475,135.708 83.276 C 136.654 84.076,142.219 88.754,148.075 93.670 " stroke="none" fill="#eb1c24" fill-rule="evenodd"></path><path id="path1" d="M134.159 82.228 C 134.321 82.498,137.408 86.244,141.019 90.551 C 153.128 104.997,163.598 117.479,168.421 123.217 C 171.052 126.349,174.566 130.532,176.229 132.514 C 183.342 140.992,184.926 147.446,181.685 154.748 C 180.077 158.370,180.272 158.124,159.378 182.965 C 141.252 204.515,134.085 213.119,134.174 213.221 C 134.231 213.285,137.492 210.626,141.422 207.312 C 145.352 203.997,152.164 198.269,156.561 194.582 C 169.299 183.901,177.131 177.315,181.288 173.792 C 190.313 166.141,194.143 164.128,199.672 164.128 C 205.533 164.128,208.681 165.898,220.373 175.769 C 238.240 190.853,265.027 213.268,265.186 213.268 C 265.356 213.268,263.173 210.635,250.657 195.741 C 217.126 155.840,219.861 159.206,218.181 155.774 C 213.860 146.950,215.386 141.522,225.553 129.555 C 227.355 127.435,231.926 121.999,235.712 117.477 C 239.498 112.955,247.533 103.358,253.567 96.151 C 265.635 81.736,265.929 81.373,264.691 82.422 C 264.246 82.799,258.280 87.800,251.433 93.535 C 244.586 99.270,237.309 105.374,235.260 107.100 C 213.710 125.258,211.764 126.856,209.604 128.170 C 199.746 134.169,194.537 132.699,178.792 119.473 C 173.880 115.347,167.355 109.865,164.292 107.290 C 161.229 104.716,153.931 98.587,148.075 93.670 C 142.219 88.754,136.626 84.057,135.646 83.234 C 134.666 82.410,133.996 81.957,134.159 82.228 M267.555 274.035 C 254.068 276.241,246.529 284.404,246.525 296.806 C 246.521 308.756,253.602 315.026,273.128 320.361 C 281.788 322.727,283.189 323.237,285.299 324.786 C 291.792 329.552,291.964 341.292,285.641 348.051 C 275.872 358.495,250.500 353.911,248.149 341.278 C 248.015 340.558,247.732 340.049,247.466 340.049 C 247.090 340.049,247.011 341.421,247.011 347.912 C 247.011 356.340,247.044 356.481,248.616 354.721 L 249.557 353.668 253.935 354.709 C 278.412 360.531,296.542 356.597,303.145 344.031 C 306.925 336.838,306.842 326.202,302.955 319.610 C 299.103 313.078,294.407 310.397,281.081 307.121 C 271.185 304.688,267.713 303.304,265.070 300.739 C 260.930 296.721,260.634 289.379,264.387 283.760 C 271.445 273.191,293.717 275.034,299.169 286.639 C 300.694 289.884,300.737 289.748,300.737 281.736 C 300.737 274.036,300.760 274.125,299.025 275.183 C 297.755 275.958,296.108 276.013,293.577 275.367 C 287.474 273.809,273.354 273.086,267.555 274.035 M94.021 274.629 C 94.021 274.890,94.427 275.184,94.922 275.283 C 99.916 276.287,99.995 276.915,100.028 315.971 C 100.061 353.646,100.136 352.917,95.991 354.864 C 94.735 355.455,93.704 356.053,93.700 356.194 C 93.684 356.817,141.891 356.284,144.144 355.635 C 161.196 350.730,172.093 334.950,172.102 315.152 C 172.111 294.065,160.799 279.670,140.541 274.992 C 137.084 274.193,94.021 273.858,94.021 274.629 M173.956 274.651 C 173.956 274.921,174.470 275.183,175.241 275.306 C 177.014 275.590,178.404 277.064,179.075 279.374 C 179.771 281.767,179.551 348.608,178.839 351.159 C 178.324 353.005,176.396 354.966,174.628 355.442 C 171.221 356.359,173.722 356.450,199.754 356.351 C 229.101 356.240,227.500 356.354,232.432 354.007 C 245.942 347.577,247.086 327.730,234.493 318.264 C 232.065 316.439,227.313 314.087,224.488 313.312 C 221.961 312.619,221.962 312.613,224.773 311.271 C 236.490 305.679,241.134 294.499,236.039 284.146 C 233.318 278.615,227.428 275.374,218.571 274.534 C 212.852 273.992,173.956 274.094,173.956 274.651 M129.961 277.985 C 143.264 280.065,151.696 289.358,154.917 305.487 C 158.559 323.723,154.612 340.848,144.972 348.636 C 137.985 354.280,117.508 355.837,115.388 350.885 C 114.332 348.418,114.531 280.481,115.601 278.524 C 116.410 277.043,122.479 276.815,129.961 277.985 M211.662 277.903 C 218.911 280.291,222.485 285.750,222.535 294.513 C 222.591 304.420,215.322 311.338,203.725 312.416 C 200.922 312.676,200.838 313.055,203.522 313.336 C 219.864 315.051,227.405 322.018,227.468 335.463 C 227.515 345.525,223.621 351.244,215.484 353.063 C 212.561 353.717,199.510 353.821,197.349 353.209 C 194.378 352.366,194.400 352.957,195.397 300.918 L 195.830 278.330 196.604 277.703 C 197.601 276.897,209.069 277.049,211.662 277.903 " stroke="none" fill="#fafaf9" fill-rule="evenodd"></path><path id="path2" d="M0.000 200.000 L 0.000 400.000 200.000 400.000 L 400.000 400.000 400.000 200.000 L 400.000 0.000 200.000 0.000 L 0.000 0.000 0.000 200.000 M143.224 43.068 C 144.609 43.538,147.642 44.864,149.963 46.014 C 161.558 51.759,172.398 55.337,182.965 56.908 C 188.061 57.666,210.645 57.765,215.397 57.051 C 227.246 55.270,236.777 52.154,250.164 45.685 C 260.071 40.899,265.126 40.724,271.593 44.947 C 279.379 50.030,282.359 60.612,278.246 68.567 C 277.766 69.494,277.771 69.533,278.345 69.282 C 286.358 65.777,294.061 66.922,299.726 72.460 C 306.063 78.654,306.925 85.879,302.456 95.332 C 298.962 102.722,298.292 104.219,296.742 108.104 C 291.436 121.397,289.990 128.832,289.700 144.313 C 289.288 166.271,291.796 177.888,301.109 197.152 C 307.037 209.416,306.790 215.564,300.093 222.441 C 294.099 228.594,287.104 229.810,278.382 226.212 C 277.859 225.996,277.865 226.096,278.452 227.423 C 282.854 237.374,278.123 248.437,267.735 252.487 C 262.847 254.393,257.873 253.598,250.007 249.655 C 241.616 245.449,232.812 242.118,224.898 240.154 C 206.565 235.605,177.795 237.195,163.309 243.558 C 162.768 243.795,161.957 244.101,161.507 244.237 C 160.035 244.683,153.581 247.538,148.731 249.889 C 141.357 253.462,137.653 254.169,132.999 252.889 C 122.033 249.874,115.958 237.010,120.914 227.298 C 121.555 226.041,121.560 225.967,120.997 226.187 C 109.895 230.528,100.416 227.230,95.641 217.363 C 92.881 211.661,93.392 207.111,97.823 197.937 C 107.551 177.795,110.068 166.444,109.644 144.636 C 109.280 125.874,106.434 114.726,97.341 96.435 C 92.367 86.429,93.021 78.939,99.411 72.707 C 105.393 66.873,112.836 65.685,120.963 69.268 C 121.460 69.487,121.434 69.293,120.760 67.765 C 114.361 53.251,128.245 37.987,143.224 43.068 M286.759 274.037 C 288.781 274.302,291.787 274.802,293.441 275.148 C 296.591 275.808,297.736 275.731,299.590 274.736 L 300.573 274.208 300.782 278.382 C 301.317 289.112,300.957 291.595,299.444 287.603 C 297.247 281.804,291.266 278.040,282.884 277.183 C 269.723 275.836,260.362 283.596,262.091 294.418 C 263.162 301.121,266.766 303.417,282.243 307.256 C 299.422 311.516,305.491 317.576,305.902 330.876 C 306.586 353.010,286.382 362.622,254.961 355.113 C 250.099 353.951,249.594 353.928,248.785 354.821 C 246.998 356.796,247.011 356.845,247.011 348.087 C 247.011 341.255,247.082 340.049,247.489 340.049 C 247.780 340.049,248.105 340.597,248.315 341.441 C 251.379 353.738,275.334 358.217,285.220 348.342 C 290.748 342.822,291.736 332.539,287.279 326.912 C 285.114 324.178,283.075 323.227,274.365 320.885 C 253.556 315.291,246.185 308.929,246.280 296.642 C 246.415 279.043,261.344 270.706,286.759 274.037 M139.433 274.704 C 157.006 277.736,169.281 290.219,171.851 307.670 C 175.364 331.521,161.309 353.543,140.749 356.402 C 136.200 357.035,93.293 356.882,93.424 356.234 C 93.482 355.946,94.067 355.527,94.723 355.302 C 99.915 353.521,99.908 353.576,99.902 316.626 C 99.895 278.125,99.770 277.031,95.205 275.524 C 94.586 275.320,93.997 274.939,93.897 274.677 C 93.617 273.947,135.192 273.972,139.433 274.704 M223.743 275.132 C 233.422 277.686,238.175 283.577,238.162 293.001 C 238.151 300.516,233.066 307.508,224.652 311.581 C 222.645 312.552,222.661 312.590,225.471 313.490 C 236.973 317.177,243.216 324.968,243.206 335.627 C 243.196 346.230,238.108 353.042,228.094 355.859 C 224.547 356.857,172.836 357.209,173.028 356.234 C 173.093 355.905,173.715 355.511,174.564 355.261 C 176.350 354.734,177.454 353.734,178.336 351.843 C 179.028 350.360,179.919 290.501,179.366 282.685 C 179.043 278.119,177.994 276.290,175.222 275.460 C 174.525 275.251,173.956 274.876,173.956 274.625 C 173.956 273.731,220.217 274.202,223.743 275.132 M198.111 277.365 C 197.310 277.464,196.717 277.770,196.423 278.235 C 195.931 279.012,195.443 298.300,195.025 333.500 L 194.817 351.029 195.607 351.929 C 197.352 353.917,211.259 354.180,217.412 352.341 C 224.019 350.366,227.200 344.870,227.180 335.463 C 227.151 321.609,219.528 314.853,202.318 313.429 C 200.229 313.256,201.256 312.651,204.517 312.134 C 216.875 310.174,222.992 303.682,222.336 293.226 C 221.573 281.079,213.074 275.515,198.111 277.365 M116.171 277.979 C 115.210 278.940,115.152 281.118,115.152 315.657 C 115.152 354.647,114.957 351.639,117.552 352.732 C 120.667 354.043,132.164 353.609,137.857 351.965 C 153.063 347.575,160.057 326.016,153.985 302.249 C 150.695 289.374,143.416 281.319,132.678 278.669 C 127.804 277.466,117.130 277.020,116.171 277.979 " stroke="none" fill="#040404" fill-rule="evenodd"></path><path id="path3" d="M147.420 45.045 C 147.871 45.303,148.387 45.513,148.567 45.513 C 148.747 45.513,148.526 45.303,148.075 45.045 C 147.625 44.788,147.109 44.577,146.929 44.577 C 146.749 44.577,146.970 44.788,147.420 45.045 M124.618 47.256 C 123.184 48.911,122.757 49.468,122.924 49.468 C 123.020 49.468,123.642 48.804,124.307 47.993 C 125.537 46.492,125.781 45.915,124.618 47.256 M210.729 57.556 C 211.044 57.638,211.560 57.638,211.876 57.556 C 212.191 57.473,211.933 57.406,211.302 57.406 C 210.672 57.406,210.414 57.473,210.729 57.556 M195.987 57.902 C 197.924 57.960,201.093 57.960,203.030 57.902 C 204.967 57.844,203.382 57.797,199.509 57.797 C 195.635 57.797,194.050 57.844,195.987 57.902 M112.121 67.393 C 112.617 67.468,113.428 67.468,113.923 67.393 C 114.419 67.318,114.013 67.256,113.022 67.256 C 112.031 67.256,111.626 67.318,112.121 67.393 M285.586 67.398 C 286.351 67.467,287.604 67.467,288.370 67.398 C 289.136 67.329,288.509 67.273,286.978 67.273 C 285.446 67.273,284.820 67.329,285.586 67.398 M98.432 73.528 C 98.259 73.771,97.775 74.428,97.357 74.987 C 96.939 75.546,96.657 76.003,96.729 76.003 C 96.961 76.003,99.006 73.344,98.875 73.213 C 98.805 73.143,98.606 73.285,98.432 73.528 M289.675 136.937 C 289.675 137.568,289.742 137.826,289.825 137.510 C 289.907 137.195,289.907 136.679,289.825 136.364 C 289.742 136.048,289.675 136.306,289.675 136.937 M109.508 137.592 C 109.508 138.403,109.572 138.735,109.650 138.329 C 109.728 137.924,109.728 137.260,109.650 136.855 C 109.572 136.450,109.508 136.781,109.508 137.592 M289.406 147.420 C 289.406 150.573,289.455 151.863,289.515 150.287 C 289.575 148.710,289.575 146.130,289.515 144.554 C 289.455 142.977,289.406 144.267,289.406 147.420 M109.872 148.075 C 109.872 150.328,109.925 151.249,109.989 150.123 C 110.053 148.997,110.053 147.154,109.989 146.028 C 109.925 144.902,109.872 145.823,109.872 148.075 M109.495 158.231 C 109.495 158.862,109.562 159.120,109.644 158.804 C 109.727 158.489,109.727 157.973,109.644 157.658 C 109.562 157.342,109.495 157.600,109.495 158.231 M289.688 158.559 C 289.688 159.369,289.752 159.701,289.830 159.296 C 289.908 158.890,289.908 158.227,289.830 157.821 C 289.752 157.416,289.688 157.748,289.688 158.559 M98.661 196.083 C 98.112 197.288,98.217 197.545,98.810 196.449 C 99.087 195.938,99.253 195.458,99.178 195.383 C 99.103 195.308,98.870 195.623,98.661 196.083 M302.199 219.574 C 301.694 220.340,301.490 220.793,301.746 220.582 C 302.238 220.176,303.492 218.182,303.256 218.182 C 303.180 218.182,302.704 218.808,302.199 219.574 M97.256 220.393 C 97.426 220.708,97.973 221.335,98.471 221.785 C 99.267 222.504,99.244 222.434,98.283 221.212 C 97.130 219.746,96.739 219.435,97.256 220.393 M103.148 225.698 C 103.574 226.069,104.090 226.370,104.295 226.367 C 104.686 226.362,104.142 225.928,103.030 225.360 C 102.515 225.096,102.541 225.169,103.148 225.698 M111.466 228.244 C 111.962 228.320,112.772 228.320,113.268 228.244 C 113.763 228.169,113.358 228.108,112.367 228.108 C 111.376 228.108,110.971 228.169,111.466 228.244 M286.409 228.245 C 286.907 228.320,287.644 228.318,288.047 228.240 C 288.450 228.163,288.043 228.101,287.142 228.104 C 286.241 228.106,285.911 228.170,286.409 228.245 M190.909 237.747 C 191.495 237.820,192.453 237.820,193.038 237.747 C 193.624 237.675,193.145 237.615,191.974 237.615 C 190.803 237.615,190.324 237.675,190.909 237.747 M206.475 237.745 C 206.973 237.821,207.710 237.819,208.113 237.741 C 208.516 237.663,208.108 237.601,207.207 237.604 C 206.306 237.606,205.977 237.670,206.475 237.745 M212.039 238.064 C 212.355 238.146,212.871 238.146,213.186 238.064 C 213.501 237.981,213.243 237.914,212.613 237.914 C 211.982 237.914,211.724 237.981,212.039 238.064 M275.210 247.093 C 273.830 248.731,273.820 248.758,274.991 247.666 C 276.045 246.683,277.052 245.372,276.752 245.373 C 276.701 245.373,276.007 246.147,275.210 247.093 M125.472 248.761 C 125.922 249.273,126.585 249.844,126.945 250.029 C 127.635 250.385,127.615 250.363,125.800 248.810 L 124.654 247.830 125.472 248.761 M135.872 253.472 C 136.458 253.545,137.416 253.545,138.002 253.472 C 138.587 253.399,138.108 253.340,136.937 253.340 C 135.766 253.340,135.287 253.399,135.872 253.472 M261.507 253.470 C 262.002 253.545,262.813 253.545,263.309 253.470 C 263.804 253.395,263.399 253.333,262.408 253.333 C 261.417 253.333,261.011 253.395,261.507 253.470 M272.318 273.444 C 272.633 273.527,273.149 273.527,273.464 273.444 C 273.780 273.362,273.522 273.295,272.891 273.295 C 272.260 273.295,272.002 273.362,272.318 273.444 M277.399 273.450 C 277.807 273.529,278.397 273.526,278.710 273.444 C 279.023 273.362,278.690 273.298,277.969 273.301 C 277.248 273.305,276.992 273.372,277.399 273.450 M252.235 280.999 L 251.106 282.228 252.334 281.099 C 253.478 280.048,253.713 279.771,253.463 279.771 C 253.408 279.771,252.856 280.324,252.235 280.999 M300.845 283.538 C 300.846 284.799,300.905 285.275,300.976 284.595 C 301.047 283.916,301.046 282.884,300.974 282.302 C 300.901 281.721,300.843 282.277,300.845 283.538 M115.081 284.193 C 115.084 285.094,115.147 285.424,115.223 284.926 C 115.298 284.428,115.296 283.691,115.218 283.288 C 115.141 282.885,115.079 283.292,115.081 284.193 M161.016 285.667 C 161.719 286.388,162.369 286.978,162.459 286.978 C 162.549 286.978,162.047 286.388,161.343 285.667 C 160.639 284.947,159.990 284.357,159.900 284.357 C 159.810 284.357,160.312 284.947,161.016 285.667 M195.682 288.943 C 195.682 290.115,195.742 290.594,195.814 290.008 C 195.887 289.423,195.887 288.464,195.814 287.879 C 195.742 287.293,195.682 287.772,195.682 288.943 M99.680 289.599 C 99.680 290.410,99.744 290.741,99.822 290.336 C 99.900 289.930,99.900 289.267,99.822 288.862 C 99.744 288.456,99.680 288.788,99.680 289.599 M246.104 296.806 C 246.104 297.437,246.171 297.695,246.254 297.379 C 246.336 297.064,246.336 296.548,246.254 296.233 C 246.171 295.917,246.104 296.175,246.104 296.806 M179.341 310.401 C 179.341 315.266,179.386 317.302,179.442 314.925 C 179.498 312.549,179.498 308.568,179.442 306.080 C 179.387 303.592,179.341 305.536,179.341 310.401 M195.357 306.143 C 195.359 307.404,195.418 307.880,195.489 307.200 C 195.560 306.520,195.559 305.488,195.486 304.907 C 195.414 304.325,195.356 304.881,195.357 306.143 M100.065 317.772 C 100.065 323.989,100.109 326.532,100.163 323.423 C 100.217 320.315,100.217 315.229,100.163 312.121 C 100.109 309.013,100.065 311.556,100.065 317.772 M114.805 321.048 C 114.805 326.364,114.850 328.538,114.905 325.880 C 114.960 323.223,114.960 318.874,114.905 316.216 C 114.850 313.559,114.805 315.733,114.805 321.048 M195.032 324.324 C 195.032 325.676,195.090 326.229,195.161 325.553 C 195.232 324.877,195.232 323.771,195.161 323.096 C 195.090 322.420,195.032 322.973,195.032 324.324 M227.437 335.627 C 227.441 336.347,227.508 336.604,227.586 336.196 C 227.665 335.789,227.662 335.199,227.580 334.886 C 227.498 334.572,227.434 334.906,227.437 335.627 M99.673 343.161 C 99.677 343.882,99.744 344.138,99.822 343.731 C 99.901 343.323,99.898 342.734,99.816 342.420 C 99.734 342.107,99.669 342.441,99.673 343.161 " stroke="none" fill="#562a2a" fill-rule="evenodd"></path><path id="path4" d="M274.615 273.454 C 275.113 273.529,275.851 273.527,276.253 273.449 C 276.656 273.372,276.249 273.310,275.348 273.312 C 274.447 273.315,274.118 273.378,274.615 273.454 M118.509 277.390 C 119.275 277.459,120.528 277.459,121.294 277.390 C 122.060 277.321,121.433 277.264,119.902 277.264 C 118.370 277.264,117.744 277.321,118.509 277.390 M115.064 281.736 C 115.064 282.367,115.131 282.625,115.214 282.310 C 115.296 281.994,115.296 281.478,115.214 281.163 C 115.131 280.848,115.064 281.106,115.064 281.736 M195.688 284.685 C 195.688 286.036,195.745 286.589,195.816 285.913 C 195.887 285.238,195.887 284.132,195.816 283.456 C 195.745 282.781,195.688 283.333,195.688 284.685 M145.113 285.422 C 146.471 286.868,146.765 287.128,146.765 286.882 C 146.765 286.830,146.065 286.129,145.209 285.326 L 143.653 283.866 145.113 285.422 M99.680 286.978 C 99.680 287.789,99.744 288.120,99.822 287.715 C 99.900 287.310,99.900 286.646,99.822 286.241 C 99.744 285.835,99.680 286.167,99.680 286.978 M300.794 287.196 C 300.761 288.196,300.570 288.957,300.328 289.054 C 300.007 289.184,300.009 289.225,300.338 289.245 C 300.932 289.282,301.126 288.584,300.979 286.933 L 300.852 285.504 300.794 287.196 M222.523 294.676 C 222.527 295.397,222.594 295.653,222.672 295.246 C 222.751 294.838,222.748 294.249,222.666 293.936 C 222.584 293.622,222.520 293.956,222.523 294.676 M114.800 304.505 C 114.800 308.468,114.847 310.045,114.905 308.008 C 114.962 305.971,114.962 302.728,114.904 300.801 C 114.847 298.874,114.799 300.541,114.800 304.505 M100.042 303.030 C 100.042 305.102,100.095 305.950,100.160 304.914 C 100.225 303.878,100.225 302.183,100.160 301.147 C 100.095 300.111,100.042 300.958,100.042 303.030 M195.360 301.720 C 195.360 303.071,195.418 303.624,195.488 302.948 C 195.559 302.273,195.559 301.167,195.488 300.491 C 195.418 299.816,195.360 300.369,195.360 301.720 M195.034 319.574 C 195.036 321.016,195.093 321.564,195.162 320.794 C 195.232 320.023,195.231 318.844,195.160 318.173 C 195.090 317.502,195.033 318.133,195.034 319.574 M179.341 327.928 C 179.341 332.883,179.387 334.910,179.442 332.432 C 179.498 329.955,179.498 325.901,179.442 323.423 C 179.387 320.946,179.341 322.973,179.341 327.928 M100.039 332.187 C 100.039 334.079,100.093 334.853,100.160 333.907 C 100.226 332.961,100.226 331.413,100.160 330.467 C 100.093 329.521,100.039 330.295,100.039 332.187 M114.795 336.118 C 114.795 339.271,114.844 340.561,114.904 338.984 C 114.964 337.408,114.964 334.828,114.904 333.251 C 114.844 331.675,114.795 332.965,114.795 336.118 M194.727 343.161 C 194.728 346.044,194.778 347.180,194.839 345.685 C 194.899 344.190,194.899 341.831,194.838 340.443 C 194.777 339.055,194.727 340.278,194.727 343.161 M99.667 345.291 C 99.667 345.921,99.734 346.179,99.816 345.864 C 99.899 345.549,99.899 345.033,99.816 344.717 C 99.734 344.402,99.667 344.660,99.667 345.291 M160.017 346.355 L 158.722 347.748 160.115 346.453 C 161.409 345.248,161.658 344.963,161.410 344.963 C 161.356 344.963,160.730 345.590,160.017 346.355 M146.258 347.338 L 144.963 348.731 146.355 347.436 C 147.650 346.231,147.898 345.946,147.650 345.946 C 147.597 345.946,146.970 346.572,146.258 347.338 M124.580 353.722 C 125.441 353.790,126.768 353.789,127.528 353.720 C 128.289 353.651,127.584 353.596,125.962 353.597 C 124.341 353.598,123.719 353.654,124.580 353.722 M204.354 353.724 C 205.487 353.788,207.256 353.787,208.285 353.722 C 209.314 353.658,208.387 353.605,206.224 353.606 C 204.062 353.606,203.220 353.659,204.354 353.724 M93.450 356.102 C 93.568 356.532,96.337 356.593,115.834 356.596 L 138.084 356.600 115.988 356.512 C 98.834 356.444,93.829 356.333,93.605 356.017 C 93.393 355.718,93.352 355.740,93.450 356.102 M185.504 356.675 C 192.305 356.724,203.436 356.724,210.238 356.675 C 217.039 356.625,211.474 356.585,197.871 356.585 C 184.267 356.585,178.702 356.625,185.504 356.675 M271.826 357.652 C 272.592 357.721,273.845 357.721,274.611 357.652 C 275.377 357.583,274.750 357.526,273.219 357.526 C 271.687 357.526,271.061 357.583,271.826 357.652 " stroke="none" fill="#7c7c7c" fill-rule="evenodd"></path></g></svg>