<svg id="svg" version="1.1" xmlns="http://www.w3.org/2000/svg" xmlns:xlink="http://www.w3.org/1999/xlink" width="400" height="240.0752587017874" viewBox="0, 0, 400,240.0752587017874"><g id="svgg"><path id="path0" d="M318.719 24.869 C 318.719 25.109,318.718 31.662,318.717 39.431 C 318.716 50.363,318.663 53.626,318.483 53.866 C 318.344 54.051,313.234 55.805,305.738 58.240 C 298.857 60.476,292.676 62.490,292.004 62.714 C 289.464 63.563,288.991 63.349,304.529 68.398 C 316.902 72.418,318.405 72.948,318.556 73.346 C 318.651 73.594,318.723 79.774,318.721 87.366 C 318.718 94.832,318.717 101.301,318.718 101.740 C 318.722 103.077,319.224 102.805,320.808 100.606 C 331.258 86.103,336.518 79.022,336.843 79.022 C 337.042 79.022,343.382 81.028,350.930 83.481 C 365.519 88.220,365.503 88.217,364.636 86.848 C 364.443 86.544,360.618 81.250,356.135 75.085 C 351.652 68.920,347.986 63.706,347.987 63.500 C 347.990 63.231,362.799 42.555,364.874 39.925 C 365.010 39.752,364.986 39.600,364.794 39.408 C 364.498 39.112,365.748 38.729,345.356 45.365 C 338.342 47.648,336.670 48.133,336.478 47.937 C 336.347 47.804,332.461 42.488,327.842 36.124 C 319.674 24.871,318.723 23.698,318.719 24.869 M80.050 80.197 C 80.000 80.327,79.982 98.255,80.008 120.038 L 80.056 159.643 89.887 159.691 L 99.718 159.740 99.718 145.627 L 99.718 131.515 116.839 131.515 L 133.960 131.515 133.960 122.954 L 133.960 114.393 116.839 114.393 L 99.718 114.393 99.718 105.927 L 99.718 97.460 119.569 97.460 L 139.421 97.460 139.372 88.758 L 139.323 80.056 109.731 80.009 C 86.156 79.971,80.121 80.009,80.050 80.197 M144.309 119.849 L 144.309 159.737 160.066 159.733 C 184.436 159.727,188.465 159.244,196.896 155.317 C 225.977 141.770,226.963 99.700,198.540 85.169 C 189.433 80.512,185.420 79.967,160.254 79.964 L 144.309 79.962 144.309 119.849 M223.458 80.086 C 223.388 80.156,223.330 98.106,223.330 119.975 L 223.330 159.737 233.234 159.737 L 243.137 159.737 243.048 139.699 C 242.999 128.678,243.009 119.663,243.070 119.665 C 243.130 119.667,244.038 121.001,245.086 122.629 C 246.135 124.256,248.720 128.255,250.831 131.515 C 252.942 134.774,256.064 139.616,257.768 142.275 L 260.865 147.109 266.322 147.120 L 271.779 147.131 272.513 145.955 C 272.917 145.308,276.896 139.149,281.356 132.268 L 289.464 119.758 289.512 139.747 L 289.560 159.737 299.437 159.737 L 309.314 159.737 309.267 119.897 L 309.219 80.056 301.924 80.007 L 294.628 79.958 287.797 90.261 C 284.040 95.928,277.687 105.508,273.679 111.550 C 268.676 119.095,266.333 122.476,266.199 122.342 C 266.093 122.236,259.684 112.678,251.958 101.102 L 237.912 80.056 230.749 80.007 C 226.809 79.980,223.528 80.015,223.458 80.086 M180.447 98.139 C 203.367 102.048,205.920 133.383,183.913 140.694 C 180.762 141.741,179.444 141.863,171.274 141.863 L 163.876 141.863 163.876 119.849 L 163.876 97.836 171.274 97.836 C 177.210 97.836,179.024 97.896,180.447 98.139 " stroke="none" fill="#040404" fill-rule="evenodd"></path><path id="path1" d="M0.000 120.038 L 0.000 240.075 200.000 240.075 L 400.000 240.075 400.000 120.038 L 400.000 0.000 200.000 0.000 L 0.000 0.000 0.000 120.038 M319.902 25.071 C 320.255 25.510,324.127 30.810,328.506 36.848 C 332.886 42.885,336.576 47.866,336.707 47.916 C 336.838 47.967,338.369 47.542,340.110 46.972 C 354.773 42.168,364.335 39.123,364.595 39.173 C 365.357 39.320,364.713 40.310,356.519 51.591 C 351.838 58.035,348.009 63.400,348.009 63.512 C 348.009 63.624,351.833 68.981,356.507 75.416 C 361.181 81.851,365.005 87.284,365.005 87.490 C 365.005 88.133,364.522 87.998,350.494 83.441 C 343.005 81.008,336.789 79.051,336.680 79.093 C 336.572 79.135,335.633 80.342,334.595 81.776 C 321.414 99.984,319.437 102.634,319.039 102.634 L 318.627 102.634 318.578 87.967 C 318.548 78.643,318.463 73.232,318.345 73.114 C 318.243 73.012,312.006 70.930,304.485 68.487 C 290.684 64.004,289.952 63.721,290.712 63.154 C 290.881 63.028,297.104 60.950,304.541 58.535 C 311.977 56.120,318.168 54.059,318.297 53.954 C 318.482 53.805,318.532 50.633,318.532 39.243 C 318.532 22.876,318.490 23.313,319.902 25.071 M139.417 88.711 L 139.417 97.460 119.661 97.460 L 99.906 97.460 99.906 105.832 L 99.906 114.203 116.980 114.251 L 134.055 114.299 134.055 122.954 L 134.055 131.609 116.980 131.657 L 99.906 131.705 99.906 145.721 L 99.906 159.737 89.934 159.737 L 79.962 159.737 79.962 119.849 L 79.962 79.962 109.690 79.962 L 139.417 79.962 139.417 88.711 M183.549 80.389 C 205.086 83.881,218.335 97.794,219.299 117.931 C 220.213 137.030,208.230 153.202,189.568 158.053 C 183.438 159.647,181.952 159.736,161.571 159.736 L 144.120 159.737 144.120 119.840 L 144.120 79.944 162.888 80.013 C 179.115 80.073,181.912 80.123,183.549 80.389 M251.929 100.800 C 259.534 112.245,265.895 121.780,266.063 121.990 C 266.388 122.397,266.781 121.818,289.980 86.783 L 294.496 79.962 301.905 79.962 L 309.313 79.962 309.313 119.849 L 309.313 159.737 299.436 159.737 L 289.558 159.737 289.532 140.687 C 289.518 130.209,289.515 121.277,289.526 120.837 C 289.556 119.681,290.486 118.360,281.407 132.371 C 279.526 135.273,277.183 138.896,276.199 140.421 C 275.216 141.946,273.819 144.089,273.095 145.182 L 271.778 147.171 266.322 147.160 L 260.865 147.148 259.643 145.303 C 258.970 144.289,257.902 142.655,257.270 141.673 C 253.249 135.428,243.214 119.928,243.141 119.849 C 243.093 119.798,243.082 128.751,243.117 139.746 L 243.180 159.737 233.255 159.737 L 223.330 159.737 223.330 119.849 L 223.330 79.962 230.715 79.977 L 238.100 79.992 251.929 100.800 M164.064 119.831 L 164.064 141.863 170.562 141.863 C 177.642 141.863,179.800 141.708,182.462 141.009 C 201.903 135.909,205.117 109.728,187.424 100.590 C 182.931 98.270,181.363 97.998,171.825 97.888 L 164.064 97.798 164.064 119.831 " stroke="none" fill="#fbfbfb" fill-rule="evenodd"></path><path id="path2" d="M99.804 105.456 C 99.804 109.802,99.829 111.554,99.859 109.348 C 99.889 107.142,99.889 103.586,99.859 101.445 C 99.828 99.305,99.804 101.110,99.804 105.456 M99.841 114.252 C 99.889 114.330,107.585 114.393,116.944 114.393 L 133.960 114.393 133.960 122.953 L 133.960 131.513 116.886 131.562 L 99.812 131.612 116.933 131.610 L 134.055 131.609 134.055 122.954 L 134.055 114.299 116.904 114.205 C 107.471 114.153,99.793 114.175,99.841 114.252 M219.238 118.062 C 219.241 118.476,219.279 118.623,219.324 118.389 C 219.369 118.155,219.367 117.816,219.320 117.637 C 219.273 117.457,219.236 117.648,219.238 118.062 M219.238 121.261 C 219.241 121.675,219.279 121.822,219.324 121.588 C 219.369 121.354,219.367 121.015,219.320 120.835 C 219.273 120.655,219.236 120.847,219.238 121.261 M99.807 146.002 C 99.807 153.608,99.830 156.719,99.859 152.916 C 99.887 149.113,99.887 142.890,99.859 139.087 C 99.830 135.285,99.807 138.396,99.807 146.002 M193.121 134.760 L 192.568 135.372 193.180 134.819 C 193.750 134.304,193.878 134.149,193.732 134.149 C 193.700 134.149,193.425 134.424,193.121 134.760 M207.984 147.742 L 207.432 148.354 208.043 147.801 C 208.613 147.286,208.741 147.131,208.596 147.131 C 208.563 147.131,208.288 147.406,207.984 147.742 M243.156 157.761 C 243.156 158.899,243.187 159.341,243.225 158.742 C 243.262 158.143,243.262 157.212,243.224 156.672 C 243.186 156.133,243.156 156.623,243.156 157.761 " stroke="none" fill="#a1a1a1" fill-rule="evenodd"></path><path id="path3" d="M318.622 39.229 C 318.622 46.886,318.645 49.991,318.674 46.129 C 318.702 42.267,318.702 36.002,318.673 32.206 C 318.645 28.411,318.622 31.571,318.622 39.229 M318.622 87.206 C 318.622 94.760,318.645 97.823,318.674 94.012 C 318.702 90.202,318.702 84.021,318.673 80.278 C 318.645 76.534,318.622 79.652,318.622 87.206 M144.213 119.755 C 144.213 141.693,144.235 150.640,144.262 139.637 C 144.288 128.634,144.288 110.685,144.262 99.750 C 144.235 88.815,144.213 97.817,144.213 119.755 M177.754 80.095 C 177.988 80.140,178.327 80.139,178.506 80.092 C 178.686 80.045,178.495 80.008,178.081 80.010 C 177.667 80.012,177.520 80.050,177.754 80.095 M208.184 92.192 C 208.799 92.813,209.344 93.321,209.396 93.321 C 209.447 93.321,208.987 92.813,208.373 92.192 C 207.758 91.571,207.213 91.063,207.161 91.063 C 207.110 91.063,207.570 91.571,208.184 92.192 M163.967 119.849 C 163.967 132.008,163.989 136.983,164.017 130.903 C 164.044 124.824,164.044 114.875,164.017 108.796 C 163.989 102.716,163.967 107.690,163.967 119.849 M318.580 101.693 C 318.582 102.107,318.621 102.254,318.666 102.020 C 318.711 101.786,318.709 101.448,318.662 101.268 C 318.615 101.088,318.578 101.279,318.580 101.693 M199.111 119.661 C 199.111 120.127,199.147 120.317,199.192 120.085 C 199.237 119.852,199.237 119.471,199.192 119.238 C 199.147 119.005,199.111 119.196,199.111 119.661 M242.931 122.154 C 242.965 124.661,243.036 124.360,243.129 121.307 C 243.157 120.401,243.116 119.661,243.039 119.661 C 242.961 119.661,242.913 120.783,242.931 122.154 M242.963 126.246 C 242.963 127.126,242.996 127.486,243.035 127.046 C 243.075 126.606,243.075 125.887,243.035 125.447 C 242.996 125.007,242.963 125.367,242.963 126.246 M177.472 159.683 C 177.758 159.727,178.181 159.726,178.413 159.681 C 178.644 159.636,178.410 159.601,177.893 159.602 C 177.375 159.604,177.186 159.640,177.472 159.683 " stroke="none" fill="#747474" fill-rule="evenodd"></path><path id="path4" d="M219.247 119.661 C 219.247 120.230,219.283 120.463,219.326 120.179 C 219.369 119.894,219.369 119.429,219.326 119.144 C 219.283 118.859,219.247 119.092,219.247 119.661 " stroke="none" fill="#7c7c7c" fill-rule="evenodd"></path></g></svg>